<?xml version="1.0" encoding="utf-8"?>
<!-- Generator: Adobe Illustrator 17.0.0, SVG Export Plug-In . SVG Version: 6.00 Build 0)  -->
<!DOCTYPE svg PUBLIC "-//W3C//DTD SVG 1.1//EN" "http://www.w3.org/Graphics/SVG/1.1/DTD/svg11.dtd">
<svg version="1.1" id="Layer_1" xmlns="http://www.w3.org/2000/svg" xmlns:xlink="http://www.w3.org/1999/xlink" x="0px" y="0px"
	 width="228px" height="23px" viewBox="0 0 228 23" enable-background="new 0 0 228 23" xml:space="preserve">
<path fill="#48A634" d="M102.744,21.645c-1.311,0.463-3.899,1.223-6.958,1.223c-3.428,0-6.252-0.859-8.47-2.941
	c-1.949-1.851-3.16-4.825-3.16-8.295c0.033-6.642,4.672-11.5,12.268-11.5c2.622,0,4.672,0.562,5.647,1.024l-0.706,2.347
	c-1.21-0.529-2.723-0.958-5.008-0.958c-5.512,0-9.109,3.37-9.109,8.955c0,5.651,3.462,8.989,8.739,8.989
	c1.916,0,3.227-0.264,3.899-0.595v-6.642h-4.605v-2.313h7.462V21.645z"/>
<path fill="#48A634" d="M107.951,11.632c0-1.883-0.033-3.503-0.134-4.99h2.588l0.101,3.14h0.134
	c0.739-2.148,2.521-3.503,4.504-3.503c0.336,0,0.571,0.033,0.84,0.099V9.12c-0.303-0.066-0.605-0.099-1.008-0.099
	c-2.084,0-3.563,1.553-3.966,3.734c-0.067,0.396-0.134,0.859-0.134,1.354v8.526h-2.924V11.632z"/>
<path fill="#48A634" d="M121.093,15.168c0.067,3.932,2.622,5.552,5.579,5.552c2.118,0,3.395-0.364,4.504-0.826l0.504,2.082
	c-1.042,0.462-2.823,1.024-5.412,1.024c-5.008,0-7.999-3.271-7.999-8.096c0-4.825,2.891-8.625,7.63-8.625
	c5.31,0,6.722,4.593,6.722,7.534c0,0.595-0.067,1.057-0.101,1.355H121.093z M129.764,13.086c0.034-1.851-0.773-4.726-4.101-4.726
	c-2.991,0-4.302,2.71-4.538,4.726H129.764z"/>
<path fill="#48A634" d="M148.551,18.803c0,1.388,0.067,2.743,0.269,3.833h-2.689l-0.235-2.016h-0.101
	C144.887,21.876,143.14,23,140.821,23c-3.294,0-4.974-2.28-4.974-4.593c0-3.866,3.495-5.981,9.78-5.948v-0.331
	c0-1.322-0.369-3.701-3.697-3.701c-1.513,0-3.092,0.462-4.235,1.189L137.022,7.7c1.345-0.859,3.294-1.421,5.344-1.421
	c4.975,0,6.185,3.337,6.185,6.543V18.803z M145.694,14.474c-3.227-0.066-6.891,0.496-6.891,3.602c0,1.884,1.277,2.776,2.79,2.776
	c2.118,0,3.462-1.322,3.932-2.677c0.101-0.297,0.168-0.628,0.168-0.925V14.474z"/>
<path fill="#48A634" d="M157.591,2.809v3.833h4.235v2.214h-4.235v8.625c0,1.983,0.572,3.106,2.218,3.106
	c0.807,0,1.278-0.066,1.714-0.198l0.134,2.181c-0.571,0.231-1.479,0.43-2.622,0.43c-1.378,0-2.487-0.463-3.193-1.256
	c-0.84-0.859-1.143-2.28-1.143-4.164V8.856h-2.521V6.642h2.521V3.701L157.591,2.809z"/>
<path fill="#4784C4" d="M3.664,2.148c0.034,0.991-0.706,1.785-1.882,1.785C0.739,3.932,0,3.139,0,2.148
	c0-1.024,0.773-1.817,1.849-1.817C2.958,0.331,3.664,1.124,3.664,2.148z M0.37,22.637V6.642h2.958v15.995H0.37z"/>
<path fill="#4784C4" d="M12.872,22.637L7.125,0.363h3.092l2.689,11.269c0.672,2.776,1.277,5.552,1.68,7.7h0.067
	c0.37-2.214,1.076-4.857,1.849-7.733l3.025-11.235h3.059l2.756,11.302c0.639,2.644,1.244,5.288,1.58,7.634h0.067
	c0.471-2.446,1.109-4.924,1.815-7.7l2.992-11.235h2.991l-6.42,22.273h-3.058l-2.857-11.599c-0.706-2.842-1.176-5.023-1.479-7.27
	h-0.067c-0.403,2.214-0.907,4.395-1.748,7.27l-3.227,11.599H12.872z"/>
<path fill="#4784C4" d="M48.666,18.803c0,1.388,0.067,2.743,0.269,3.833h-2.689l-0.235-2.016H45.91
	C45.003,21.876,43.255,23,40.936,23c-3.294,0-4.975-2.28-4.975-4.593c0-3.866,3.496-5.981,9.781-5.948v-0.331
	c0-1.322-0.37-3.701-3.697-3.701c-1.512,0-3.092,0.462-4.235,1.189L37.138,7.7c1.344-0.859,3.294-1.421,5.344-1.421
	c4.975,0,6.185,3.337,6.185,6.543V18.803z M45.809,14.474c-3.227-0.066-6.89,0.496-6.89,3.602c0,1.884,1.277,2.776,2.79,2.776
	c2.117,0,3.462-1.322,3.932-2.677c0.101-0.297,0.168-0.628,0.168-0.925V14.474z"/>
<path fill="#4784C4" d="M54.278,10.971c0-1.652-0.033-3.007-0.134-4.329h2.622l0.168,2.644H57c0.807-1.52,2.689-3.007,5.378-3.007
	c2.252,0,5.748,1.322,5.748,6.807v9.55h-2.958v-9.22c0-2.578-0.975-4.725-3.764-4.725c-1.95,0-3.462,1.355-3.966,2.974
	c-0.134,0.364-0.202,0.86-0.202,1.355v9.616h-2.958V10.971z"/>
<path fill="#4784C4" d="M77.199,2.809v3.833h4.235v2.214h-4.235v8.625c0,1.983,0.571,3.106,2.218,3.106
	c0.807,0,1.277-0.066,1.714-0.198l0.134,2.181C80.694,22.802,79.787,23,78.644,23c-1.378,0-2.487-0.463-3.193-1.256
	c-0.84-0.859-1.143-2.28-1.143-4.164V8.856h-2.521V6.642h2.521V3.701L77.199,2.809z"/>
<path fill="#4784C4" d="M182.125,21.91c-1.076,0.529-3.227,1.09-5.983,1.09c-6.386,0-11.193-3.999-11.193-11.302
	C164.949,4.725,169.756,0,176.78,0c2.824,0,4.605,0.595,5.378,0.991l-0.706,2.346c-1.109-0.528-2.689-0.925-4.571-0.925
	c-5.311,0-8.84,3.338-8.84,9.187c0,5.453,3.193,8.955,8.706,8.955c1.781,0,3.596-0.363,4.773-0.925L182.125,21.91z"/>
<path fill="#4784C4" d="M197.719,18.803c0,1.388,0.067,2.743,0.269,3.833h-2.689l-0.235-2.016h-0.101
	c-0.908,1.256-2.656,2.379-4.975,2.379c-3.294,0-4.974-2.28-4.974-4.593c0-3.866,3.496-5.981,9.781-5.948v-0.331
	c0-1.322-0.369-3.701-3.697-3.701c-1.513,0-3.093,0.462-4.235,1.189L186.19,7.7c1.345-0.859,3.294-1.421,5.344-1.421
	c4.974,0,6.185,3.337,6.185,6.543V18.803z M194.861,14.474c-3.227-0.066-6.89,0.496-6.89,3.602c0,1.884,1.277,2.776,2.789,2.776
	c2.118,0,3.462-1.322,3.933-2.677c0.101-0.297,0.168-0.628,0.168-0.925V14.474z"/>
<path fill="#4784C4" d="M203.33,11.632c0-1.883-0.033-3.503-0.134-4.99h2.588l0.101,3.14h0.134c0.74-2.148,2.52-3.503,4.504-3.503
	c0.336,0,0.571,0.033,0.84,0.099V9.12c-0.302-0.066-0.605-0.099-1.009-0.099c-2.084,0-3.563,1.553-3.966,3.734
	c-0.067,0.396-0.134,0.859-0.134,1.354v8.526h-2.924V11.632z"/>
<path fill="#4784C4" d="M216.472,15.168c0.067,3.932,2.622,5.552,5.579,5.552c2.118,0,3.395-0.364,4.504-0.826l0.504,2.082
	c-1.042,0.462-2.823,1.024-5.411,1.024c-5.008,0-8-3.271-8-8.096c0-4.825,2.891-8.625,7.63-8.625c5.311,0,6.722,4.593,6.722,7.534
	c0,0.595-0.067,1.057-0.101,1.355H216.472z M225.143,13.086c0.034-1.851-0.773-4.726-4.1-4.726c-2.992,0-4.303,2.71-4.538,4.726
	H225.143z"/>
</svg>
