<?xml version="1.0" standalone="no"?>
<!DOCTYPE svg PUBLIC "-//W3C//DTD SVG 20010904//EN"
 "http://www.w3.org/TR/2001/REC-SVG-20010904/DTD/svg10.dtd">
<svg version="1.0" xmlns="http://www.w3.org/2000/svg"
 width="258.000000pt" height="258.000000pt" viewBox="0 0 258.000000 258.000000"
 preserveAspectRatio="xMidYMid meet">
<metadata>
Created by potrace 1.14, written by Peter Selinger 2001-2017
</metadata>
<g transform="translate(0.000000,258.000000) scale(0.100000,-0.100000)"
fill="#000000" stroke="none">
<path d="M15 1950 c-3 -5 2 -13 12 -16 40 -12 68 -31 80 -54 15 -31 12 -1122
-4 -1160 -10 -24 -33 -40 -75 -54 -42 -13 -14 -26 60 -27 443 -4 462 -4 467 8
3 8 -12 17 -40 24 -66 17 -95 55 -96 127 -3 228 3 487 10 491 8 5 85 6 214 2
33 -1 68 -36 107 -106 43 -76 50 -58 49 130 0 50 0 109 1 133 0 23 -3 42 -9
42 -5 0 -24 -26 -42 -57 -55 -96 -53 -95 -201 -97 l-129 -2 2 291 2 292 181
-1 c112 -1 189 -6 201 -13 22 -13 44 -46 119 -183 28 -52 56 -93 61 -90 9 4 9
41 1 290 l-1 35 -482 3 c-328 2 -483 0 -488 -8z"/>
<path d="M1079 1949 c-12 -7 7 -24 37 -33 11 -3 31 -17 43 -30 l23 -24 -2
-474 c0 -260 -2 -514 -4 -564 -3 -106 -16 -136 -71 -155 -67 -24 -41 -34 88
-34 134 0 177 11 112 29 -77 22 -74 -3 -77 583 -2 286 0 519 5 516 4 -2 7 -9
7 -14 0 -10 46 -136 110 -304 21 -55 75 -199 120 -320 45 -121 86 -229 90
-240 5 -11 23 -58 40 -105 58 -155 54 -151 109 -149 l48 2 26 71 c14 39 39
107 55 151 16 44 53 145 82 225 29 80 57 156 63 170 6 14 11 30 13 35 3 13 54
153 67 185 5 14 11 30 13 35 6 24 86 240 93 253 11 19 2 -1015 -9 -1044 -5
-13 -27 -32 -50 -44 -22 -11 -40 -25 -40 -30 0 -6 93 -10 250 -10 256 0 288 5
216 35 -67 28 -64 -2 -62 623 2 627 -1 597 68 628 21 10 35 21 31 25 -11 11
-384 13 -393 2 -7 -8 -32 -75 -95 -248 -20 -55 -42 -116 -50 -135 -7 -19 -46
-125 -85 -235 -39 -110 -75 -209 -79 -220 -5 -11 -17 -42 -26 -69 l-18 -49
-49 129 c-27 71 -53 140 -57 154 -9 27 -143 382 -166 440 -8 19 -32 82 -54
140 l-41 105 -185 0 c-103 0 -191 -2 -196 -6z"/>
</g>
</svg>
